# xmcd
#
# Track frame offsets:
#	150
#	10462
#	22858
#	32034
#	46278
#	57640
#	71287
#	81739
#	92600
#	101915
#	113048
#	125237
#	138472
#	149370
#	164192
#	177154
#	189345
#	201268
#	213705
#	226138
#	240035
#
# Disc length: 3375 seconds
#
# Revision: 0
# Processed by: cddbd v1.5.2PL0 Copyright (c) Steve Scherf et al.
# Submitted via: EZCDAudioConverter 2.1.3.1
#
DISCID=320d2d15
DTITLE=Dean Martin - Music Icons
DYEAR=1900
DGENRE=swing
TTITLE0=Memories are made of this
TTITLE1=sway
TTITLE2=everybody loves somebody
TTITLE3=that's amore
TTITLE4=don't let the stars get in your eyes
TTITLE5=volare
TTITLE6=mambo italiano
TTITLE7=kiss
TTITLE8=pretty baby
TTITLE9=innamorata
TTITLE10=arriverdeci roma
TTITLE11=relax ay voo
TTITLE12=i wish you love
TTITLE13=it's easy to remember
TTITLE14=the man who plays the mandolino
TTITLE15=i can't give you anything but love
TTITLE16=baby, it's cold outside
TTITLE17=all i do is dream of you
TTITLE18=i've got to keep ypu warm
TTITLE19=when you're smiling
TTITLE20=naughty lady of shady lane
EXTD=
EXTT0=
EXTT1=
EXTT2=
EXTT3=
EXTT4=
EXTT5=
EXTT6=
EXTT7=
EXTT8=
EXTT9=
EXTT10=
EXTT11=
EXTT12=
EXTT13=
EXTT14=
EXTT15=
EXTT16=
EXTT17=
EXTT18=
EXTT19=
EXTT20=
PLAYORDER=
